<svg id="Camada_1" data-name="Camada 1" xmlns="http://www.w3.org/2000/svg" viewBox="0 0 1365 759.08"><defs><style>.cls-1{fill:#fff;}</style></defs><path class="cls-1" d="M832,0c105,83.91,119.86,144.65,116,183.19C938.41,279,797.75,396.64,716,517c-6.78,10-16.65,25.13-14,43,7.42,50,103.93,60.75,104,91,.06,25.31-67.49,44.43-80,48-121.44,34.63-197.12,11.2-393,5-66.53-2.11-126.77-1.59-199,8C124.75,713.23.24,730,1,742c.73,11.44,114.89,14.57,455,14,223.22-.37,180,3.67,431,3,111.44-.3,276.13-1.51,479-6V0Z" transform="translate(-1 0)"/><path class="cls-1" d="M1142,1001" transform="translate(-1 0)"/></svg>